<svg xmlns="http://www.w3.org/2000/svg" xmlns:xlink="http://www.w3.org/1999/xlink" width="32px" height="32px" viewBox="0 0 32 32" version="1.1">
                <path style=" stroke:none;fill-rule:evenodd;fill:#A8BFC9;fill-opacity:1;" d="M 7.5 0.574219 L 16 9.074219 L 24.5 0.574219 C 25.085938 -0.0117188 26.035156 -0.0117188 26.621094 0.574219 L 31.425781 5.378906 C 32.011719 5.964844 32.011719 6.914062 31.425781 7.5 L 22.925781 16 L 31.425781 24.5 C 32.011719 25.085938 32.011719 26.035156 31.425781 26.621094 L 26.621094 31.425781 C 26.035156 32.011719 25.085938 32.011719 24.5 31.425781 L 16 22.925781 L 7.5 31.425781 C 6.914062 32.011719 5.964844 32.011719 5.378906 31.425781 L 0.574219 26.621094 C -0.0117188 26.035156 -0.0117188 25.085938 0.574219 24.5 L 9.074219 16 L 0.574219 7.5 C -0.0117188 6.914062 -0.0117188 5.964844 0.574219 5.378906 L 5.378906 0.574219 C 5.964844 -0.0117188 6.914062 -0.0117188 7.5 0.574219 Z M 7.5 0.574219 "/>
              </svg>       