<svg xmlns="http://www.w3.org/2000/svg" xmlns:xlink="http://www.w3.org/1999/xlink" width="20px" height="20px" viewBox="0 0 20 20" version="1.1">
<path style=" stroke:none;fill-rule:evenodd;fill:#A8BFC9;fill-opacity:1;" d="M 4.6875 0.359375 L 10 5.671875 L 15.3125 0.359375 C 15.679688 -0.0078125 16.273438 -0.0078125 16.636719 0.359375 L 19.640625 3.363281 C 20.007812 3.726562 20.007812 4.320312 19.640625 4.6875 L 14.328125 10 L 19.640625 15.3125 C 20.007812 15.679688 20.007812 16.273438 19.640625 16.636719 L 16.636719 19.640625 C 16.273438 20.007812 15.679688 20.007812 15.3125 19.640625 L 10 14.328125 L 4.6875 19.640625 C 4.320312 20.007812 3.726562 20.007812 3.363281 19.640625 L 0.359375 16.636719 C -0.0078125 16.269531 -0.0078125 15.675781 0.359375 15.3125 L 5.671875 10 L 0.359375 4.6875 C -0.0078125 4.320312 -0.0078125 3.726562 0.359375 3.363281 L 3.363281 0.359375 C 3.726562 -0.0078125 4.320312 -0.0078125 4.6875 0.359375 Z M 4.6875 0.359375 "/>
</svg>
